HIERARCHY
ROOT Hips
{
    OFFSET 0.000000 0.000000 0.000000
    CHANNELS 6 Xposition Yposition Zposition Zrotation Xrotation Yrotation
    JOINT Spine
    {
        OFFSET -0.000000 14.517291 0.000000
        CHANNELS 3 Zrotation Xrotation Yrotation
        JOINT Spine1
        {
            OFFSET -0.000000 37.558300 0.000000
            CHANNELS 3 Zrotation Xrotation Yrotation
            JOINT Neck
            {
                OFFSET -0.000000 37.404057 3.400369
                CHANNELS 3 Zrotation Xrotation Yrotation
                JOINT Head
                {
                    OFFSET -0.000000 24.785618 -3.540803
                    CHANNELS 3 Zrotation Xrotation Yrotation
                    End Site
                    {
                        OFFSET -0.000000 35.408028 0.000000
                    }
                }
            }
            JOINT LeftShoulder
            {
                OFFSET 6.992933 33.973492 -0.192664
                CHANNELS 3 Zrotation Xrotation Yrotation
                JOINT LeftArm
                {
                    OFFSET 21.527611 0.000000 0.000000
                    CHANNELS 3 Zrotation Xrotation Yrotation
                    JOINT LeftForeArm
                    {
                        OFFSET 56.353916 0.000000 0.000000
                        CHANNELS 3 Zrotation Xrotation Yrotation
                        JOINT LeftHand
                        {
                            OFFSET 47.774071 0.000000 0.000000
                            CHANNELS 3 Zrotation Xrotation Yrotation
                            End Site
                            {
                                OFFSET 26.556021 0.000000 0.000000
                            }
                        }
                    }
                }
            }
            JOINT RightShoulder
            {
                OFFSET -7.065357 33.973492 -0.192664
                CHANNELS 3 Zrotation Xrotation Yrotation
                JOINT RightArm
                {
                    OFFSET -21.527611 0.000000 0.000000
                    CHANNELS 3 Zrotation Xrotation Yrotation
                    JOINT RightForeArm
                    {
                        OFFSET -56.353916 0.000000 0.000000
                        CHANNELS 3 Zrotation Xrotation Yrotation
                        JOINT RightHand
                        {
                            OFFSET -47.774071 0.000000 0.000000
                            CHANNELS 3 Zrotation Xrotation Yrotation
                            End Site
                            {
                                OFFSET -26.556021 0.000000 0.000000
                            }
                        }
                    }
                }
            }
        }
    }
    JOINT LeftUpLeg
    {
        OFFSET 17.704014 0.000000 0.000000
        CHANNELS 3 Zrotation Xrotation Yrotation
        JOINT LeftLeg
        {
            OFFSET -0.000000 -81.181816 0.000000
            CHANNELS 3 Zrotation Xrotation Yrotation
            JOINT LeftFoot
            {
                OFFSET -0.000000 -62.821102 0.000000
                CHANNELS 3 Zrotation Xrotation Yrotation
                JOINT LeftToeBase
                {
                    OFFSET -0.000000 -11.507608 26.556021
                    CHANNELS 3 Zrotation Xrotation Yrotation
                    End Site
                    {
                        OFFSET -0.000000 0.000000 7.081605
                    }
                }
            }
        }
    }
    JOINT RightUpLeg
    {
        OFFSET -17.704014 0.000000 0.000000
        CHANNELS 3 Zrotation Xrotation Yrotation
        JOINT RightLeg
        {
            OFFSET -0.000000 -81.181816 0.000000
            CHANNELS 3 Zrotation Xrotation Yrotation
            JOINT RightFoot
            {
                OFFSET -0.000000 -62.821102 0.000000
                CHANNELS 3 Zrotation Xrotation Yrotation
                JOINT RightToeBase
                {
                    OFFSET -0.000000 -11.507608 26.556021
                    CHANNELS 3 Zrotation Xrotation Yrotation
                    End Site
                    {
                        OFFSET -0.000000 0.000000 7.081605
                    }
                }
            }
        }
    }
}
MOTION
Frames:    8
Frame Time:    0.008333
-25.816786    153.707153    -29.841047    1.684554    2.422400    10.455178    -2.234328    1.013399    0.910508    -5.054598    4.590034    0.500968    9.465231    4.780508    -1.686530    3.076984    -12.775002    -1.986639    3.730188    5.284597    -8.124371    -40.814777    14.280817    -51.543468    -5.662386    -19.933083    -125.834946    -2.501166    -29.845871    -7.774764    -4.860180    14.136614    -13.702892    38.808937    28.372620    -9.898976    23.550734    32.314293    98.457008    -6.008965    4.886800    19.308922    1.569597    -31.588163    -23.391140    -11.903177    25.329983    -21.591337    -7.669518    -3.188746    36.244335    0.000000    0.000000    0.000000    -1.500501    8.706730    -13.989266    2.363395    22.986761    -3.550285    1.504206    -29.334333    -9.412183    0.000000    0.000000    0.000000    
-25.822302    153.710999    -29.839483    1.686618    2.420085    10.443645    -2.226532    1.012709    0.897128    -5.052027    4.593162    0.496651    9.450602    4.800550    -1.684253    3.069881    -12.780658    -1.982605    3.717758    5.296831    -8.117367    -40.818527    14.288370    -51.543736    -5.663260    -19.924784    -125.841682    -2.543802    -29.838037    -7.800579    -4.873915    14.147000    -13.698337    38.806858    28.367708    -9.886755    23.536419    32.305058    98.491501    -5.990609    4.879931    19.297564    1.576327    -31.579044    -23.382149    -11.900112    25.321341    -21.600288    -7.681749    -3.195708    36.263512    0.000000    0.000000    0.000000    -1.503935    8.713700    -13.992899    2.357586    22.976854    -3.550700    1.517646    -29.321472    -9.371048    0.000000    0.000000    0.000000    
-25.831436    153.715103    -29.842216    1.686474    2.422032    10.433680    -2.213946    1.005828    0.886525    -5.061897    4.604082    0.494071    9.449671    4.803037    -1.680269    3.057981    -12.774551    -1.981320    3.711704    5.309763    -8.121203    -40.812286    14.280289    -51.540840    -5.662727    -19.910152    -125.848465    -2.548624    -29.824499    -7.802087    -4.877111    14.148106    -13.694419    38.821449    28.367804    -9.891933    23.520212    32.281399    98.535080    -5.974053    4.853782    19.288944    1.586100    -31.572929    -23.368526    -11.893970    25.304781    -21.605091    -7.679045    -3.184021    36.263931    0.000000    0.000000    0.000000    -1.501631    8.711103    -14.003690    2.349555    22.970228    -3.539014    1.525033    -29.318356    -9.371170    0.000000    0.000000    0.000000    
-25.834009    153.716965    -29.840963    1.690999    2.419309    10.423697    -2.201758    1.003942    0.874925    -5.069190    4.611921    0.490841    9.436930    4.793119    -1.673404    3.057924    -12.747188    -1.974385    3.706256    5.312466    -8.111685    -40.801910    14.301016    -51.538555    -5.654528    -19.922333    -125.852119    -2.569914    -29.821075    -7.811709    -4.886539    14.157495    -13.680957    38.832043    28.353605    -9.903630    23.503389    32.270000    98.576889    -5.960732    4.842423    19.289862    1.585067    -31.563925    -23.360783    -11.884927    25.302471    -21.591887    -7.680774    -3.183937    36.250500    0.000000    0.000000    0.000000    -1.508650    8.718596    -14.010222    2.354118    22.961973    -3.556385    1.535936    -29.317850    -9.340958    0.000000    0.000000    0.000000    
-25.840658    153.720596    -29.840750    1.693101    2.419959    10.410183    -2.194906    0.995055    0.869181    -5.066701    4.619319    0.489258    9.424633    4.809235    -1.673603    3.052710    -12.745865    -1.973263    3.691472    5.305597    -8.116616    -40.796967    14.306478    -51.514290    -5.654957    -19.913076    -125.854630    -2.579931    -29.812801    -7.824220    -4.900187    14.166103    -13.671370    38.856812    28.351654    -9.923494    23.466980    32.235977    98.634232    -5.950806    4.823598    19.242334    1.596645    -31.557686    -23.351215    -11.891374    25.287991    -21.598419    -7.687221    -3.185946    36.273117    0.000000    0.000000    0.000000    -1.508614    8.717136    -14.019485    2.342457    22.957655    -3.525270    1.525309    -29.311981    -9.358331    0.000000    0.000000    0.000000    
-25.845749    153.725388    -29.836750    1.697230    2.415617    10.399927    -2.184201    0.989062    0.867870    -5.078952    4.637628    0.490171    9.446674    4.785715    -1.663636    3.020612    -12.711472    -1.976120    3.699694    5.301039    -8.107952    -40.812656    14.307539    -51.512638    -5.663000    -19.878380    -125.852348    -2.569495    -29.794987    -7.816532    -4.894342    14.176285    -13.684640    38.855827    28.348013    -9.911260    23.444443    32.210426    98.672905    -5.958588    4.800504    19.253815    1.602850    -31.543423    -23.361111    -11.894630    25.270767    -21.575230    -7.692623    -3.181716    36.264938    0.000000    0.000000    0.000000    -1.509868    8.724458    -14.008591    2.338048    22.949377    -3.511662    1.525289    -29.300583    -9.365642    0.000000    0.000000    0.000000    
-25.854174    153.730057    -29.841164    1.701051    2.420833    10.384154    -2.183489    0.982736    0.867916    -5.064961    4.629344    0.489392    9.415917    4.821791    -1.665065    3.032772    -12.729095    -1.967758    3.677190    5.319149    -8.113330    -40.801590    14.293365    -51.504417    -5.669322    -19.862438    -125.850983    -2.533522    -29.793510    -7.792016    -4.927800    14.190633    -13.669372    38.890701    28.333946    -9.926424    23.420231    32.197281    98.708015    -5.953102    4.799917    19.233955    1.608643    -31.543921    -23.345322    -11.890462    25.263954    -21.562298    -7.695333    -3.175096    36.262867    0.000000    0.000000    0.000000    -1.512920    8.714194    -14.001277    2.335619    22.948626    -3.534563    1.537633    -29.295103    -9.342717    0.000000    0.000000    0.000000    
-25.856833    153.734238    -29.843626    1.709565    2.424207    10.372036    -2.181328    0.971079    0.871992    -5.067153    4.641458    0.491272    9.411440    4.830114    -1.665270    3.033180    -12.735722    -1.966549    3.676476    5.315784    -8.115618    -40.797554    14.299674    -51.500076    -5.671680    -19.862057    -125.846390    -2.532583    -29.796368    -7.785487    -4.935421    14.194576    -13.672379    38.899025    28.315533    -9.928055    23.402815    32.185150    98.734634    -5.955968    4.792943    19.247730    1.610647    -31.536112    -23.349937    -11.893322    25.241150    -21.560802    -7.698771    -3.166509    36.273983    0.000000    0.000000    0.000000    -1.525723    8.706182    -13.991189    2.332718    22.959341    -3.514879    1.495582    -29.300987    -9.343427    0.000000    0.000000    0.000000    
